PathFileType	4	(X/Y/Z)	C:\Users\WrightLab\Desktop\Jo\P3_14.trc
DataRate	CameraRate	NumFrames	NumMarkers	Units	OrigDataRate	OrigDataStartFrame	OrigNumFrames
100.00	100.00	       40	19	mm	100.00	1	       672
Frame#	Time	Headset_Front			Headset_Back			Headset_Left			Headset_Right			Left_Shoulder			Right_Shoulder			Sternum			C7			Left Elbow			Right Elbow			Left Wrist			Right Wrist			Left ASIS			Right ASIS			S2			Left Knee			Right Knee			Left Ankle			Right Ankle			
		X1	Y1	Z1	X2	Y2	Z2	X3	Y3	Z3	X4	Y4	Z4	X5	Y5	Z5	X6	Y6	Z6	X7	Y7	Z7	X8	Y8	Z8	X9	Y9	Z9	X10	Y10	Z10	X11	Y11	Z11	X12	Y12	Z12	X13	Y13	Z13	X14	Y14	Z14	X15	Y15	Z15	X16	Y16	Z16	X17	Y17	Z17	X18	Y18	Z18	X19	Y19	Z19	

1	0.000																									-141.12328	960.77881	-1661.85754				-201.10558	775.76880	-1574.84070	-616.21075	764.04724	-1591.87122	-287.71954	812.14478	-1594.47021										-534.12274	390.07306	-1645.76526							
2	0.010																									-140.13100	960.49164	-1659.98047				-200.12279	775.46021	-1573.98462	-617.38989	763.36011	-1589.83411	-287.64157	811.16821	-1592.88843										-534.63281	388.32343	-1641.57471							
3	0.020																									-140.96568	959.43866	-1662.12085				-198.56398	772.88220	-1577.27173	-617.75574	762.89423	-1591.41516	-287.54974	810.81573	-1592.30896										-535.61243	388.92419	-1634.49683							
4	0.030																									-138.00282	960.37286	-1656.91064				-198.36710	772.72406	-1576.04578	-618.54315	763.32874	-1592.22205	-287.62857	809.66187	-1591.59998										-536.01056	389.55356	-1629.72632							
5	0.040																									-135.75301	959.33008	-1653.97546				-197.45186	770.62903	-1577.09705	-619.20691	761.92419	-1593.73926	-287.97778	809.08929	-1589.29529										-537.24298	390.53516	-1621.51160							
6	0.050																									-134.62059	956.64203	-1647.19495				-197.11990	770.15118	-1573.30017	-620.25378	762.27814	-1592.16223	-287.69012	807.86591	-1590.20178										-537.34161	391.11365	-1617.77844							
7	0.060																									-134.15659	956.96423	-1645.97168				-195.26926	768.28882	-1572.73596	-620.80585	761.51959	-1594.53198	-287.80402	806.64868	-1589.19214										-539.37079	394.93304	-1606.60449							
8	0.070																									-134.35008	957.53278	-1646.08337				-194.38931	769.43854	-1567.47058	-621.16968	761.02551	-1596.09509	-287.76880	806.57050	-1588.97852										-540.42316	397.09171	-1600.87952				-538.33691	80.35023	-1722.20581	
9	0.080																									-133.85127	957.62360	-1643.79529				-193.53891	769.05994	-1566.19775	-622.61456	762.20074	-1592.73340	-288.37341	807.40686	-1585.65967										-541.86353	398.90884	-1594.19141				-538.31445	81.85368	-1723.32153	
10	0.090																									-133.38133	956.91626	-1640.02612				-192.69115	767.07990	-1566.07300	-623.30322	762.24805	-1591.38110	-288.47479	806.85144	-1584.58008										-543.56305	401.58719	-1587.43433				-538.70764	86.50626	-1717.10840	
11	0.100																									-132.91064	957.16638	-1637.42554				-192.50356	767.17889	-1564.93115	-624.38385	762.80432	-1590.31689	-288.41815	806.88214	-1584.26074										-545.25848	403.06009	-1580.88611				-539.09210	89.64607	-1713.60767	
12	0.110																									-132.54086	957.62030	-1635.08948				-192.38412	766.37195	-1563.85107	-624.94714	763.00446	-1593.70691	-288.38733	806.89246	-1584.08606										-546.71570	404.83838	-1576.40149				-540.70740	95.34429	-1707.66785	
13	0.120																									-132.11104	956.62823	-1630.52625				-192.44066	766.25208	-1560.64539	-625.94745	763.39825	-1595.47485	-289.00433	807.30731	-1581.10510										-549.10693	408.14722	-1567.86060				-540.76892	96.65334	-1709.15771	
14	0.130																									-130.95837	956.39410	-1625.85535				-191.44440	765.67255	-1560.64807	-628.23358	764.66693	-1594.92493	-289.69748	806.40564	-1577.81787										-550.51782	410.02304	-1563.21411				-540.88239	100.42730	-1704.88647	
15	0.140																									-131.78433	956.94049	-1624.72705				-191.30220	765.74091	-1556.32898	-630.10382	765.09369	-1594.37683	-289.67026	806.28162	-1577.64526										-552.80939	413.46570	-1554.29675				-541.61353	103.35521	-1698.74414	
16	0.150																									-131.55765	957.45276	-1622.44153				-190.99860	765.38733	-1551.80579	-631.50952	765.16650	-1594.69043	-289.66351	806.08881	-1577.57898										-554.75305	415.82333	-1547.04968				-542.74884	106.92019	-1692.40625	
17	0.160																									-131.38141	958.05640	-1620.20776				-190.55325	765.72089	-1549.10669	-632.63806	764.33069	-1595.62244	-290.13058	805.90771	-1575.34387										-556.49420	418.68008	-1540.74377				-543.48761	108.43359	-1688.71545	
18	0.170																									-130.94730	958.17896	-1617.42017				-190.10471	766.16553	-1546.40051	-634.04419	765.27405	-1594.98401	-291.07220	805.38135	-1572.07874										-559.18170	422.28378	-1532.83813				-545.99243	112.01421	-1677.42786	
19	0.180																									-131.48849	955.12756	-1626.41357				-190.04869	765.82849	-1544.32190	-636.36902	766.40106	-1592.67041	-291.90616	804.89484	-1569.09570										-561.65948	421.83246	-1533.94727				-547.19946	110.51092	-1674.04333	
20	0.190																									-130.79951	958.77954	-1611.48999				-190.50705	765.75842	-1540.48291	-638.73956	765.82300	-1593.20630	-292.04279	804.16498	-1569.76038										-565.47064	423.87527	-1531.11670				-549.46021	112.14455	-1668.39624	
21	0.200																									-130.65024	959.16052	-1608.54333				-190.66266	765.57593	-1538.65662	-639.75885	764.44104	-1597.53040	-293.42337	804.55084	-1564.06311										-567.19617	424.42548	-1528.85144				-551.96606	112.38696	-1657.02026	
22	0.210																									-130.77086	956.50757	-1615.91711				-191.08397	765.70844	-1536.05261	-641.62128	764.31970	-1592.85364	-294.17618	804.18536	-1560.88354										-569.56140	428.36606	-1519.58679				-555.16656	113.75861	-1645.05054	
23	0.220																									-130.72310	959.27631	-1601.54968				-191.05066	765.69946	-1535.84680	-643.75659	765.94562	-1587.70166	-294.12402	804.10205	-1560.57410										-571.23029	428.95636	-1517.08594				-557.61328	110.53851	-1638.66077	
24	0.230																									-131.89212	958.49036	-1596.23059				-191.48137	765.83484	-1533.30444	-644.96429	764.35181	-1592.81299	-294.73233	803.23669	-1556.85107										-574.66602	431.40530	-1512.63330				-561.57568	110.16488	-1625.85229	
25	0.240																									-132.12794	959.03107	-1593.80164				-192.33553	765.92224	-1529.42090	-648.51270	764.11493	-1593.63538	-295.40186	803.25641	-1554.15454										-577.59906	430.23184	-1515.73694				-565.67731	108.05015	-1616.28418	
26	0.250																									-131.90254	958.25024	-1588.31824				-192.32491	764.87787	-1528.98157	-650.51331	764.12933	-1590.83997	-296.31104	802.45819	-1550.81946										-580.15790	431.29678	-1509.69324				-570.70465	106.37740	-1606.27515	
27	0.260																									-132.96318	959.50665	-1588.08276				-193.75935	765.57739	-1521.75525	-651.42542	762.51935	-1589.40442	-297.74753	800.61279	-1547.17871										-582.03906	432.85733	-1504.17810				-575.23285	104.42313	-1594.41858	
28	0.270																									-133.32896	958.84058	-1583.65076				-194.62354	765.20874	-1517.89880	-652.51062	761.29010	-1590.03394	-297.64233	799.24286	-1548.15308										-584.49304	434.19812	-1497.36230				-579.52606	102.23219	-1582.99792	
29	0.280																									-133.67883	958.17896	-1579.30090				-195.03404	764.84747	-1515.18970	-655.63806	763.18042	-1580.70129	-298.98007	799.78381	-1543.19617										-586.36542	431.75876	-1501.51074				-583.62311	98.38313	-1571.82629	
30	0.290																									-135.12943	957.22333	-1574.09570				-195.71078	764.64178	-1511.40588	-657.09094	761.99695	-1582.72888	-300.18988	800.53979	-1537.56812										-590.19360	432.29984	-1498.85950				-588.66425	97.14714	-1558.65552	
31	0.300																									-136.48584	957.34247	-1570.75232				-196.49461	763.62207	-1507.82056	-658.95343	760.09485	-1586.42859	-302.03683	800.48669	-1529.80078										-592.37384	431.54999	-1497.33081				-594.63855	94.30225	-1549.65625	
32	0.310																									-137.13205	957.71185	-1567.91003				-197.14125	763.35455	-1502.90540	-661.33856	759.42975	-1583.43323	-302.01999	798.33722	-1531.13904										-593.96985	430.82813	-1492.84229				-600.48682	93.43370	-1534.90613	
33	0.320																									-137.97948	956.95697	-1563.13660				-198.01332	762.13629	-1499.24683	-662.90997	758.82196	-1578.89050	-304.14026	797.99115	-1525.07080										-596.24756	432.61148	-1485.38489				-605.79034	93.72128	-1517.14197	
34	0.330																									-139.54919	955.84216	-1557.25403				-198.93904	760.80475	-1496.14148	-663.78357	757.19708	-1577.85974	-305.77792	797.65625	-1518.99280										-598.12036	431.42175	-1485.74146				-611.12372	93.38842	-1505.42786	
35	0.340																									-141.13234	955.49194	-1552.96277				-199.79478	759.29144	-1493.66553	-665.95349	758.48792	-1572.86938	-306.56491	797.28375	-1515.21057										-601.48230	431.10873	-1482.86597				-617.62360	91.09763	-1495.29285	
36	0.350																									-142.40520	955.30566	-1549.27905				-201.98117	760.12085	-1485.92773	-667.78351	758.12628	-1568.09668	-308.53702	797.82703	-1508.52466										-604.01807	429.30795	-1483.61047				-622.82300	91.45258	-1481.69141	
37	0.360																									-143.97356	954.03961	-1543.37341				-202.81645	759.97882	-1482.12976	-670.08270	754.96436	-1568.57019	-310.45313	796.21191	-1503.85254										-605.54376	427.98224	-1481.32190				-627.39392	91.60125	-1468.64050	
38	0.370																									-145.96957	953.90063	-1538.97107				-204.50905	757.97479	-1477.82776	-672.58124	753.95465	-1567.80798	-311.37323	794.74261	-1500.66602										-607.11676	428.97412	-1475.52393				-632.80640	91.57835	-1454.84692	
39	0.380																-572.21527	1282.56396	-1628.05640							-147.27458	953.73853	-1534.92810				-205.89236	757.02020	-1475.46716	-674.42401	753.48834	-1563.08826	-313.53714	794.92719	-1493.21570										-608.90802	430.69659	-1469.62817				-637.60095	90.53017	-1449.66992	
40	0.390																-573.83002	1283.12573	-1626.92017							-149.07056	951.87585	-1527.86877				-208.03407	756.61542	-1468.93054	-676.07892	751.32184	-1560.92957	-315.34265	794.59949	-1490.02124										-610.41211	428.24396	-1467.57129				-642.71747	90.87081	-1436.07349	
